<svg id="Layer_1" data-name="Layer 1" xmlns="http://www.w3.org/2000/svg" viewBox="0 0 180 180"><defs><style>.cls-1{fill:#51bf6e;}</style></defs><g id="insta_logo_mit"><path class="cls-1" d="M90-.15a90,90,0,1,0,90,90A90,90,0,0,0,90-.15Zm56.6,115.5a31.1,31.1,0,0,1-31.1,31.1H65.12A31.1,31.1,0,0,1,34,115.35V65a31.09,31.09,0,0,1,31.1-31.1H115.5A31.09,31.09,0,0,1,146.6,65Z"/><circle class="cls-1" cx="90.31" cy="90.16" r="19.79"/><path class="cls-1" d="M115.35,40.67H65.27A24.52,24.52,0,0,0,40.82,65.12V115.2a24.52,24.52,0,0,0,24.45,24.44h50.08a24.51,24.51,0,0,0,24.44-24.44V65.12A24.52,24.52,0,0,0,115.35,40.67Zm-25,76.09a26.6,26.6,0,1,1,26.6-26.6A26.6,26.6,0,0,1,90.31,116.76Zm30-50.73a5.88,5.88,0,1,1,5.88-5.87A5.87,5.87,0,0,1,120.31,66Z"/></g></svg>