<svg id="Layer_1" data-name="Layer 1" xmlns="http://www.w3.org/2000/svg" viewBox="0 0 180 180"><defs><style>.cls-1{fill:#51bf6e;}</style></defs><rect class="cls-1" width="180" height="180" rx="66.77"/><circle cx="49.19" cy="48.14" r="15.7"/><rect x="36.63" y="70.12" width="25.12" height="76.4" rx="5.56"/><path d="M147.57,105.06c0-21.56-7.34-34.94-26.17-36-16.11-.89-22.54,7.83-24.07,10.39V75.93a5.83,5.83,0,0,0-5.82-5.81H78a5.83,5.83,0,0,0-5.81,5.81V140.7A5.83,5.83,0,0,0,78,146.51H91.51a5.83,5.83,0,0,0,5.82-5.81V101.42a14.72,14.72,0,0,1,14.58-11.71c9.35,0,11.06,15.35,11.06,15.35a18.37,18.37,0,0,1,.52,3.31V140.7a5.82,5.82,0,0,0,5.81,5.81h12.44a5.83,5.83,0,0,0,5.82-5.81V108.37C147.56,107.15,147.57,105.06,147.57,105.06Z"/></svg>