<svg id="Layer_1" data-name="Layer 1" xmlns="http://www.w3.org/2000/svg" viewBox="0 0 180 180"><defs><style>.cls-1{fill:#51bf6e;}</style></defs><path class="cls-1" d="M110.13,0H69.87A70.07,70.07,0,0,0,0,69.87v40.26A70.07,70.07,0,0,0,69.87,180h40.26A70.07,70.07,0,0,0,180,110.13V69.87A70.07,70.07,0,0,0,110.13,0ZM61.74,140.7a5.82,5.82,0,0,1-5.81,5.81H42.44a5.82,5.82,0,0,1-5.81-5.81V75.93a5.82,5.82,0,0,1,5.81-5.81H55.93a5.82,5.82,0,0,1,5.81,5.81ZM49.19,63.84a15.7,15.7,0,1,1,15.69-15.7A15.7,15.7,0,0,1,49.19,63.84Zm98.37,44.53V140.7a5.83,5.83,0,0,1-5.82,5.81H129.3a5.82,5.82,0,0,1-5.81-5.81V108.37a18.37,18.37,0,0,0-.52-3.31s-1.71-15.35-11.06-15.35a14.72,14.72,0,0,0-14.58,11.71V140.7a5.83,5.83,0,0,1-5.82,5.81H78a5.83,5.83,0,0,1-5.81-5.81V75.93A5.83,5.83,0,0,1,78,70.12H91.51a5.83,5.83,0,0,1,5.82,5.81v3.53c1.53-2.56,8-11.28,24.07-10.39,18.83,1.05,26.17,14.43,26.17,36C147.57,105.06,147.56,107.15,147.56,108.37Z"/></svg>