<svg id="Layer_1" data-name="Layer 1" xmlns="http://www.w3.org/2000/svg" viewBox="0 0 180 180"><defs><style>.cls-1{fill:#51bf6e;}</style></defs><g id="mail_icon_1"><rect class="cls-1" width="178" height="178" rx="66.77"/><path d="M140,37.44H38A14.07,14.07,0,0,0,23.94,51.51v75A14.07,14.07,0,0,0,38,140.56H140a14.07,14.07,0,0,0,14.06-14.07v-75A14.07,14.07,0,0,0,140,37.44Zm-7.85,10.44a11.41,11.41,0,0,1,4.31.84L97.1,89l-4.71,2.85a6.51,6.51,0,0,1-6.78,0L81,89,41.54,48.72a11.49,11.49,0,0,1,4.31-.84Zm11.48,70.76a11.48,11.48,0,0,1-11.48,11.48H45.85a11.48,11.48,0,0,1-11.48-11.48V59.36a11.45,11.45,0,0,1,.89-4.43l45.13,45.13.1.07a15.84,15.84,0,0,0,17,0h0l45.21-45.22a11.45,11.45,0,0,1,.89,4.43Z"/></g></svg>