<svg id="Layer_1" data-name="Layer 1" xmlns="http://www.w3.org/2000/svg" viewBox="0 0 180 180"><g id="pen_icon_4"><rect x="113.62" y="20.19" width="64.18" height="37.75" rx="9.52" transform="translate(73.25 -93.25) rotate(46.28)"/><path d="M144.54,94.07a17.2,17.2,0,0,0-4.07-16.78h0l-2-2.12L127.14,63.35l-5.87-6.14L107.14,42.43h0a15.22,15.22,0,0,0-14.63-4.26l-39.33,9.7a18.91,18.91,0,0,0-12.87,11L0,154.32a4.71,4.71,0,0,0,.94,5.09l3.17,3.32a4.72,4.72,0,0,0,6.68.15l64.33-61.51a4.77,4.77,0,0,0,1.2-4.93,17,17,0,1,1,9.4,10.41,4.62,4.62,0,0,0-5,1L16.63,169a4.72,4.72,0,0,0-.15,6.68L19.65,179a4.73,4.73,0,0,0,5.05,1.16l97.18-36a18.87,18.87,0,0,0,11.54-12.36Z"/></g></svg>