<svg id="Layer_1" data-name="Layer 1" xmlns="http://www.w3.org/2000/svg" viewBox="0 0 180 180"><defs><style>.cls-1{fill:#51bf6e;}</style></defs><g id="pen_icon_3"><rect class="cls-1" x="110.67" y="24.05" width="62.44" height="36.73" rx="9.52" transform="translate(74.49 -89.45) rotate(46.28)"/><path class="cls-1" d="M140.75,95.92a16.74,16.74,0,0,0-4-16.32h0l-2-2.06-11-11.5-5.71-6L104.36,45.69h0a14.78,14.78,0,0,0-14.23-4.14L51.87,51A18.39,18.39,0,0,0,39.35,61.67L.12,154.53a4.57,4.57,0,0,0,.91,5l3.08,3.23a4.59,4.59,0,0,0,6.49.14L73.19,103a4.64,4.64,0,0,0,1.17-4.79,16.54,16.54,0,1,1,9.14,10.12,4.52,4.52,0,0,0-4.9.94L16.32,168.84a4.59,4.59,0,0,0-.15,6.49l3.09,3.23a4.58,4.58,0,0,0,4.91,1.13l94.53-35a18.36,18.36,0,0,0,11.23-12Z"/></g></svg>