<svg id="Layer_1" data-name="Layer 1" xmlns="http://www.w3.org/2000/svg" viewBox="0 0 180 180"><defs><style>.cls-1{fill:#51bf6e;}</style></defs><g id="telefon_icon_1"><rect class="cls-1" x="0.85" y="2.41" width="177.15" height="177.15" rx="66.77"/><path d="M157.42,120.06c-7.9-8.72-39.45-40.18-53.54-4.07,0,0-4.46,12-27.56-1.87a39.47,39.47,0,0,1-12.17-11.41c-14.89-21.59-3.42-26.79-3.42-26.79,35-16.61,1.4-45.88-7.84-53.13a4,4,0,0,0-4.54-.25c-56,35-14,89.78-1.08,104.45a39.73,39.73,0,0,0,7.49,6.63c15.88,10.85,74.31,45.51,103.23-9A4,4,0,0,0,157.42,120.06Z"/></g></svg>