<svg id="Layer_1" data-name="Layer 1" xmlns="http://www.w3.org/2000/svg" viewBox="0 0 180 180"><defs><style>.cls-1{fill:#51bf6e;}.cls-2{opacity:0;}</style></defs><g id="top_buttom"><path class="cls-1" d="M168,.36H12a12,12,0,0,0-12,12v156a12,12,0,0,0,12,12H168a12,12,0,0,0,12-12v-156A12,12,0,0,0,168,.36Zm7,163a12,12,0,0,1-12,12H17a12,12,0,0,1-12-12v-146a12,12,0,0,1,12-12H163a12,12,0,0,1,12,12Z"/><g class="cls-2"><rect class="cls-1" x="5" y="5.36" width="170" height="170" rx="12"/></g></g><path class="cls-1" d="M141.31,76.7l-30.58-36C89.45,16,69,40.69,69,40.69l-30.59,36a12,12,0,0,0,18.3,15.53L78.34,66.8A11.4,11.4,0,0,0,78,69.56v81.61a12,12,0,0,0,12,12h0a12,12,0,0,0,12-12V69.56a11.35,11.35,0,0,0-.24-2.35l21.26,25A12,12,0,1,0,141.31,76.7Z"/></svg>