<?xml version="1.0" standalone="no"?>
<!DOCTYPE svg PUBLIC "-//W3C//DTD SVG 20010904//EN"
 "http://www.w3.org/TR/2001/REC-SVG-20010904/DTD/svg10.dtd">
<svg version="1.0" xmlns="http://www.w3.org/2000/svg"
 width="700.000000pt" height="700.000000pt" viewBox="0 0 700.000000 700.000000"
 preserveAspectRatio="xMidYMid meet">
<metadata>
Created by potrace 1.14, written by Peter Selinger 2001-2017
</metadata>
<g transform="translate(0.000000,700.000000) scale(0.100000,-0.100000)"
fill="#000000" stroke="none">
<path d="M3226 6979 c-1035 -80 -1976 -607 -2577 -1444 -339 -471 -556 -1019
-629 -1589 -29 -224 -29 -678 0 -902 99 -768 447 -1474 1001 -2025 548 -547
1240 -886 2021 -991 134 -18 212 -22 438 -22 303 0 439 12 701 65 1386 278
2471 1379 2738 2779 54 282 73 729 43 995 -83 725 -353 1362 -807 1900 -121
144 -373 388 -508 493 -523 408 -1109 649 -1767 727 -158 19 -498 27 -654 14z
m660 -263 c594 -79 1109 -294 1584 -662 148 -114 420 -386 534 -534 366 -473
579 -983 663 -1590 24 -175 24 -614 0 -790 -37 -262 -120 -594 -160 -637 -23
-26 -64 -30 -93 -9 -18 14 -19 37 -24 815 l-5 800 -23 23 c-20 21 -32 23 -123
23 -94 0 -102 -2 -120 -24 -18 -23 -19 -55 -19 -1131 0 -757 -3 -1117 -11
-1138 -12 -35 -59 -60 -89 -46 -34 16 -1269 928 -1277 944 -4 8 -10 683 -13
1500 -5 1424 -6 1486 -24 1520 -44 83 -116 131 -200 133 -109 2 -66 40 -931
-823 -440 -439 -810 -801 -823 -805 -14 -4 -32 -1 -47 9 -13 9 -330 353 -704
766 -623 687 -681 753 -681 785 0 30 9 42 82 106 512 444 1146 714 1823 778
136 13 545 5 681 -13z m487 -1287 c14 -6 30 -22 36 -36 8 -17 11 -348 11
-1157 0 -1131 0 -1133 -21 -1160 -29 -37 -65 -34 -130 12 -169 120 -1257 927
-1271 944 -43 50 -59 32 640 731 361 362 666 663 677 667 27 12 30 12 58 -1z
m-3064 -66 c53 -52 1222 -1342 1244 -1373 16 -23 17 -108 17 -1304 l0 -1280
22 -23 c19 -21 30 -23 114 -23 51 0 100 3 109 6 46 18 45 -8 45 1179 0 1102 0
1115 20 1135 45 45 38 50 787 -501 389 -287 718 -532 731 -546 22 -24 22 -29
22 -264 l0 -240 25 -24 c22 -23 32 -25 120 -25 88 0 98 2 120 25 22 21 25 33
25 98 0 60 4 79 21 101 45 57 39 60 624 -372 324 -239 545 -409 553 -424 20
-41 2 -70 -126 -200 -509 -522 -1125 -833 -1868 -945 -171 -26 -686 -26 -859
0 -502 75 -951 246 -1355 517 -242 162 -535 431 -710 650 -193 242 -399 603
-499 875 -140 379 -203 732 -204 1135 0 469 89 888 280 1315 57 126 161 319
190 351 27 30 75 32 103 4 20 -20 20 -34 21 -1195 1 -646 3 -1179 4 -1185 1
-5 3 -165 4 -355 1 -416 -10 -385 137 -385 52 0 103 4 113 10 46 24 45 -19 37
1643 -5 1131 -4 1581 4 1603 11 31 39 52 73 53 10 1 35 -16 56 -36z"/>
</g>
</svg>
