<svg id="Layer_1" data-name="Layer 1" xmlns="http://www.w3.org/2000/svg" xmlns:xlink="http://www.w3.org/1999/xlink" viewBox="0 0 260 260"><defs><style>.cls-1{fill:url(#linear-gradient);}.cls-2{fill:url(#linear-gradient-2);}.cls-3{fill:url(#linear-gradient-3);}</style><linearGradient id="linear-gradient" x1="11.37" y1="150.98" x2="249.02" y2="150.98" gradientUnits="userSpaceOnUse"><stop offset="0.08" stop-color="#3dbd39"/><stop offset="0.89" stop-color="#143d12"/></linearGradient><linearGradient id="linear-gradient-2" x1="11.37" y1="102.36" x2="249.02" y2="102.36" xlink:href="#linear-gradient"/><linearGradient id="linear-gradient-3" x1="11.37" y1="101.65" x2="249.02" y2="101.65" xlink:href="#linear-gradient"/></defs><circle cx="130.07" cy="130" r="129.53"/><path class="cls-1" d="M175.52,182.3h-10.6l0-20L106.71,119.4v89.68H96.18V112L44.34,54.81,44.41,182H33.81L33.74,58.92A118.83,118.83,0,0,0,221.65,204.19l-46.15-34Z"/><path class="cls-2" d="M175.31,28.33l.17,128.91,51.48,38V105.53H237.5v73.9A118.84,118.84,0,0,0,47.73,42.78l53.81,59.32Z"/><polygon class="cls-3" points="109.83 108.8 164.87 149.41 164.75 53.89 109.83 108.8"/></svg>