<svg id="Layer_1" data-name="Layer 1" xmlns="http://www.w3.org/2000/svg" viewBox="0 0 180 180"><defs><style>.cls-1{fill:#51bf6e;}.cls-2{opacity:0;}</style></defs><g id="top_buttom"><path class="cls-1" d="M180,168.36v-156a12,12,0,0,0-12-12H12a12,12,0,0,0-12,12v156a12,12,0,0,0,12,12H168A12,12,0,0,0,180,168.36Zm-5-5a12,12,0,0,1-12,12H17a12,12,0,0,1-12-12v-146a12,12,0,0,1,12-12H163a12,12,0,0,1,12,12Z"/><g class="cls-2"><rect class="cls-1" x="5" y="5.36" width="170" height="170" rx="12"/></g></g><path class="cls-1" d="M141.31,104l-30.58,36C89.45,164.72,69,140,69,140L38.43,104a12,12,0,0,1,18.3-15.54l21.61,25.44a11.46,11.46,0,0,1-.34-2.76V29.56a12,12,0,0,1,12-12h0a12,12,0,0,1,12,12v81.61a11.35,11.35,0,0,1-.24,2.35l21.26-25A12,12,0,0,1,141.31,104Z"/></svg>