<svg id="Layer_1" data-name="Layer 1" xmlns="http://www.w3.org/2000/svg" viewBox="0 0 180 180"><defs><style>.cls-1{opacity:0;}</style></defs><g id="top_buttom"><path d="M180,167.85v-156a12,12,0,0,0-12-12H12a12,12,0,0,0-12,12v156a12,12,0,0,0,12,12H168A12,12,0,0,0,180,167.85Zm-5-5a12,12,0,0,1-12,12H17a12,12,0,0,1-12-12v-146a12,12,0,0,1,12-12H163a12,12,0,0,1,12,12Z"/><g class="cls-1"><rect x="5" y="4.85" width="170" height="170" rx="12"/></g></g><path d="M141.31,103.52l-30.58,36c-21.28,24.67-41.71,0-41.71,0l-30.59-36A12,12,0,0,1,56.73,88l21.61,25.44a11.46,11.46,0,0,1-.34-2.76V29A12,12,0,0,1,90,17h0a12,12,0,0,1,12,12v81.62a11.33,11.33,0,0,1-.24,2.34L123,88a12,12,0,1,1,18.29,15.54Z"/></svg>