<svg id="Layer_1" data-name="Layer 1" xmlns="http://www.w3.org/2000/svg" viewBox="0 0 180 180"><g id="mail_icon_3"><path d="M157.15,2H19.63a19,19,0,0,0-19,19V122a19,19,0,0,0,19,19H157.15a19,19,0,0,0,19-19V20.93A19,19,0,0,0,157.15,2ZM146.57,16a15.44,15.44,0,0,1,5.82,1.14L99.31,71.48,93,75.33a8.81,8.81,0,0,1-9.14,0l-6.25-3.83L24.4,17.17A15.43,15.43,0,0,1,30.21,16Zm15.48,95.42a15.48,15.48,0,0,1-15.48,15.48H30.21a15.48,15.48,0,0,1-15.48-15.48V31.51a15.41,15.41,0,0,1,1.2-6L76.78,86.4l.13.08a21.37,21.37,0,0,0,23,0h0l61-61a15.41,15.41,0,0,1,1.2,6Z"/></g></svg>