<svg id="Layer_1" data-name="Layer 1" xmlns="http://www.w3.org/2000/svg" viewBox="0 0 180 180"><defs><style>.cls-1{fill:#51bf6e;}</style></defs><g id="mail_icon_2"><path class="cls-1" d="M157.28,1H18.77A19.1,19.1,0,0,0-.34,20.06V121.9A19.1,19.1,0,0,0,18.77,141H157.28a19.1,19.1,0,0,0,19.1-19.1V20.06A19.1,19.1,0,0,0,157.28,1ZM146.62,15.13a15.46,15.46,0,0,1,5.86,1.15L99,71l-6.39,3.87a8.84,8.84,0,0,1-9.21,0L77.13,71,23.57,16.28a15.41,15.41,0,0,1,5.85-1.15Zm15.59,96.11a15.59,15.59,0,0,1-15.59,15.59H29.42a15.59,15.59,0,0,1-15.59-15.59V30.72a15.43,15.43,0,0,1,1.21-6L76.33,86l.13.08a21.52,21.52,0,0,0,23.14,0h0L161,24.71a15.61,15.61,0,0,1,1.2,6Z"/></g></svg>