<svg id="Layer_1" data-name="Layer 1" xmlns="http://www.w3.org/2000/svg" viewBox="0 0 180 180"><defs><style>.cls-1{fill:#51bf6e;}</style></defs><g id="pen_icon_1"><rect class="cls-1" width="180" height="180" rx="66.77"/><rect x="68.9" y="18.62" width="42.21" height="24.83" rx="9.24"/><path d="M115.61,56.59a11.33,11.33,0,0,0-9.83-5.69H74.06a10,10,0,0,0-8.67,5L52.13,79a12.41,12.41,0,0,0-.63,11.1l27.05,62.56a3.09,3.09,0,0,0,2.84,1.87h3a3.1,3.1,0,0,0,3.11-3.1V92.91a3.16,3.16,0,0,0-1.8-2.81,11.16,11.16,0,1,1,9.22.27A3.05,3.05,0,0,0,93.1,93.2v58.25a3.1,3.1,0,0,0,3.11,3.1h3a3.12,3.12,0,0,0,2.85-1.87l27-62.56a12.41,12.41,0,0,0-.63-11.1Z"/></g></svg>