<svg id="Layer_1" data-name="Layer 1" xmlns="http://www.w3.org/2000/svg" viewBox="0 0 180 180"><defs><style>.cls-1{fill:#51bf6e;}</style></defs><g id="pen_icon_2"><rect class="cls-1" width="180" height="180" rx="66.77"/><rect x="109.53" y="41.13" width="42.21" height="24.83" rx="9.52" transform="translate(79.06 -77.88) rotate(46.28)"/><path d="M129.87,89.71a11.35,11.35,0,0,0-2.68-11h0l-1.33-1.39-7.44-7.77-3.86-4-9.29-9.73h0A10,10,0,0,0,95.65,53L69.78,59.34a12.4,12.4,0,0,0-8.46,7.22L34.8,129.33a3.13,3.13,0,0,0,.61,3.36l2.09,2.18a3.11,3.11,0,0,0,4.39.1l42.3-40.45A3.14,3.14,0,0,0,85,91.27a11.17,11.17,0,1,1,6.18,6.85,3,3,0,0,0-3.31.63L45.75,139a3.1,3.1,0,0,0-.1,4.38l2.09,2.19a3.11,3.11,0,0,0,3.32.76L115,122.66a12.43,12.43,0,0,0,7.59-8.13Z"/></g></svg>