<svg id="Layer_1" data-name="Layer 1" xmlns="http://www.w3.org/2000/svg" viewBox="0 0 180 180"><defs><style>.cls-1{fill:#51bf6e;}</style></defs><path id="telefon_icon_2" class="cls-1" d="M175.26,125.11C165.19,114,125,73.87,107,119.92c0,0-5.68,15.32-35.14-2.39A50.47,50.47,0,0,1,56.33,103C37.35,75.46,52,68.82,52,68.82,96.65,47.65,53.75,10.33,42,1.08A5.06,5.06,0,0,0,36.18.76C-35.25,45.36,18.37,115.23,34.8,134a50.87,50.87,0,0,0,9.55,8.45c20.25,13.83,94.75,58,131.63-11.52A5.06,5.06,0,0,0,175.26,125.11Z"/></svg>