<svg id="Layer_1" data-name="Layer 1" xmlns="http://www.w3.org/2000/svg" viewBox="0 0 180 180"><defs><style>.cls-1{opacity:0;}</style></defs><g id="top_buttom"><path d="M168-.15H12a12,12,0,0,0-12,12v156a12,12,0,0,0,12,12H168a12,12,0,0,0,12-12v-156A12,12,0,0,0,168-.15Zm7,163a12,12,0,0,1-12,12H17a12,12,0,0,1-12-12v-146a12,12,0,0,1,12-12H163a12,12,0,0,1,12,12Z"/><g class="cls-1"><rect x="5" y="4.85" width="170" height="170" rx="12"/></g></g><path d="M141.31,76.18l-30.58-36C89.45,15.5,69,40.17,69,40.17l-30.59,36a12,12,0,0,0,18.3,15.54L78.34,66.28A11.46,11.46,0,0,0,78,69v81.62a12,12,0,0,0,12,12h0a12,12,0,0,0,12-12V69a11.42,11.42,0,0,0-.24-2.35l21.26,25a12,12,0,1,0,18.29-15.54Z"/></svg>