<?xml version="1.0" standalone="no"?>
<!DOCTYPE svg PUBLIC "-//W3C//DTD SVG 20010904//EN"
 "http://www.w3.org/TR/2001/REC-SVG-20010904/DTD/svg10.dtd">
<svg version="1.0" xmlns="http://www.w3.org/2000/svg"
 width="700.000000pt" height="700.000000pt" viewBox="0 0 700.000000 700.000000"
 preserveAspectRatio="xMidYMid meet">
<metadata>
Created by potrace 1.14, written by Peter Selinger 2001-2017
</metadata>
<g transform="translate(0.000000,700.000000) scale(0.100000,-0.100000)"
fill="#000000" stroke="none">
<path d="M3338 6985 c-2 -1 -51 -6 -109 -9 -58 -4 -117 -9 -130 -11 -13 -2
-62 -9 -109 -15 -239 -31 -599 -133 -851 -240 -133 -57 -316 -149 -391 -196
-21 -13 -40 -24 -42 -24 -9 0 -213 -139 -296 -201 -567 -426 -991 -1013 -1214
-1679 -60 -181 -119 -421 -141 -575 -3 -22 -8 -53 -10 -70 -26 -165 -36 -479
-22 -695 32 -475 163 -951 372 -1355 104 -200 261 -446 356 -560 9 -11 43 -51
75 -90 204 -244 442 -460 714 -647 52 -36 111 -75 130 -86 19 -11 73 -42 120
-69 233 -135 529 -256 810 -331 98 -26 148 -38 294 -68 11 -2 56 -8 100 -14
45 -6 92 -13 104 -15 60 -10 242 -19 392 -19 212 -1 355 9 515 34 33 5 78 12
100 16 221 33 537 128 793 238 307 132 661 357 911 580 49 44 259 254 301 301
190 214 377 490 505 745 26 52 51 102 56 111 39 78 169 424 177 472 1 4 8 31
17 61 9 29 17 62 19 72 3 11 9 39 16 64 6 25 13 59 16 75 3 17 11 64 19 105 7
41 17 97 20 123 4 27 8 56 10 65 27 142 26 622 0 837 -7 53 -43 273 -50 305
-3 14 -8 36 -11 50 -3 14 -7 33 -10 42 -3 9 -7 27 -10 40 -3 13 -6 28 -8 33
-1 6 -8 30 -15 55 -114 420 -363 904 -636 1239 -122 150 -304 339 -439 456
-114 100 -339 266 -447 330 -192 114 -348 194 -484 249 -49 20 -99 41 -110 46
-97 45 -484 152 -635 175 -19 3 -46 7 -60 10 -14 2 -43 7 -65 9 -22 3 -58 8
-80 10 -111 14 -187 18 -367 21 -109 1 -199 1 -200 0z"/>
</g>
</svg>
