<svg id="Layer_1" data-name="Layer 1" xmlns="http://www.w3.org/2000/svg" viewBox="0 0 260 260"><defs><style>.cls-1{fill:#577c96;}.cls-2{fill:#51bf6e;}</style></defs><circle class="cls-1" cx="129.32" cy="130.13" r="129.68"/><path class="cls-2" d="M172,182.5h-5a2.81,2.81,0,0,1-2.82-2.81l0-15.77a2.82,2.82,0,0,0-1.15-2.27l-52.61-38.81a2.82,2.82,0,0,0-4.49,2.27v81.38a2.82,2.82,0,0,1-2.82,2.82H98.2a2.82,2.82,0,0,1-2.82-2.82V113.16a2.81,2.81,0,0,0-.73-1.89l-46.26-51a2.82,2.82,0,0,0-4.91,1.89l.07,117.25a2.82,2.82,0,0,1-2.82,2.82h-5a2.83,2.83,0,0,1-2.83-2.82L32.87,68.32a2.82,2.82,0,0,0-5.23-1.46A119,119,0,0,0,219,206.75a2.83,2.83,0,0,0-.44-4.13l-39.27-29a2.82,2.82,0,0,0-4.49,2.27v3.75A2.83,2.83,0,0,1,172,182.5Z"/><path class="cls-2" d="M174.64,48.72,174.78,156a2.83,2.83,0,0,0,1.15,2.27l45.9,33.86a2.82,2.82,0,0,0,4.49-2.27V108.46a2.82,2.82,0,0,1,2.82-2.82h4.91a2.82,2.82,0,0,1,2.82,2.82v56.63a2.82,2.82,0,0,0,5.5.88A119,119,0,0,0,48.92,40.88a2.83,2.83,0,0,0-.18,4l50,55.15a2.82,2.82,0,0,0,4.08.1L160.2,42.76A8.46,8.46,0,0,1,174.64,48.72Z"/><path class="cls-2" d="M111.69,110.86l48,35.39a2.82,2.82,0,0,0,4.49-2.28L164,60.72a2.82,2.82,0,0,0-4.81-2l-47.86,47.86A2.83,2.83,0,0,0,111.69,110.86Z"/></svg>