<svg id="Layer_1" data-name="Layer 1" xmlns="http://www.w3.org/2000/svg" viewBox="0 0 260 260"><defs><style>.cls-1{fill:#51bf6e;}</style></defs><circle cx="129.41" cy="130.22" r="129.78"/><path class="cls-1" d="M172.12,182.62h-5a2.82,2.82,0,0,1-2.82-2.82l0-15.78a2.82,2.82,0,0,0-1.14-2.27L110.5,122.92a2.83,2.83,0,0,0-4.5,2.27v81.45a2.82,2.82,0,0,1-2.82,2.82H98.27a2.82,2.82,0,0,1-2.82-2.82v-93.4a2.81,2.81,0,0,0-.73-1.89l-46.3-51a2.82,2.82,0,0,0-4.91,1.89l.07,117.33a2.83,2.83,0,0,1-2.82,2.83h-5A2.82,2.82,0,0,1,33,179.54L32.9,68.37a2.83,2.83,0,0,0-5.24-1.46,119.06,119.06,0,0,0,191.51,140,2.84,2.84,0,0,0-.45-4.14l-39.29-29a2.83,2.83,0,0,0-4.5,2.28v3.75A2.8,2.8,0,0,1,172.12,182.62Z"/><path class="cls-1" d="M174.76,48.76l.14,107.33a2.83,2.83,0,0,0,1.15,2.27L222,192.24a2.82,2.82,0,0,0,4.5-2.27V108.53a2.82,2.82,0,0,1,2.82-2.82h4.91a2.83,2.83,0,0,1,2.83,2.82V165.2a2.82,2.82,0,0,0,5.5.88A119.06,119.06,0,0,0,49,40.91a2.83,2.83,0,0,0-.19,4l50.06,55.19a2.83,2.83,0,0,0,4.09.1l57.39-57.4A8.47,8.47,0,0,1,174.76,48.76Z"/><path class="cls-1" d="M111.77,110.93l48,35.42a2.83,2.83,0,0,0,4.5-2.28l-.11-83.31a2.83,2.83,0,0,0-4.82-2l-47.89,47.9A2.81,2.81,0,0,0,111.77,110.93Z"/></svg>