<svg id="Layer_1" data-name="Layer 1" xmlns="http://www.w3.org/2000/svg" viewBox="0 0 128 128"><defs><style>.cls-1{fill:#222433;}.cls-2{fill:#8088bf;}</style></defs><path class="cls-1" d="M23.58,111.19c-2.68,0-7.37,0-8.47-2.57-2-.14-6.33-.77-8.31-3.57a6.08,6.08,0,0,1-.57-5.66l.35-1.08,1.1.25a28,28,0,0,0,5.25.61c2.31,0,3.24-.49,3.59-.78.66-.58,2.08-4.53,3.22-7.71C23.35,80.61,26.46,72.83,30.79,72a34.52,34.52,0,0,0,13-5.92c.43-.63,3.33-5,2.54-8.86a6.6,6.6,0,0,0-3.46-4.41l-.33-.19-.17-.34c-.11-.23-3-5.78-11.36-5.78a20.57,20.57,0,0,0-2.31.14l-.23,0-.22-.06c-1.52-.39-14.71-4-17.32-9.27C.31,29.08.87,27.94,1.32,27A2.22,2.22,0,0,1,3.4,25.81C5,25.81,7,27,9.5,28.43l.12.07a1.38,1.38,0,0,1,1.34-1,1.57,1.57,0,0,1,.74.19A9.6,9.6,0,0,1,15,31.23c.81,1.21,1.64,2.45,2.43,2.51a15.18,15.18,0,0,1,3.84,1.07,20.74,20.74,0,0,0,7.31,1.65,30.37,30.37,0,0,1,5.39.64,23.51,23.51,0,0,0,3.82.49,3.08,3.08,0,0,0,2.35-.76c.13-.14.12-.18.11-.22-.28-1.12-4.13-3.88-13.25-6.53-4.86-1.42-6.41-2.46-7.43-3.15a2.9,2.9,0,0,0-2.23-.6c-3.33,0-5.38-2.59-5.39-4.46C6.78,19.46,7,18.33,7.15,17.63c.29-1.44,2.07-1.44,2.75-1.44,3.66,0,6.61,1.81,8.56,3a9.12,9.12,0,0,0,1.47.81h0c1.4,0,12.74,2.58,15.4,3.93a2.85,2.85,0,0,0,1.27.34c1.19,0,1.9-1.13,1.9-3v-1l.94-.24a22,22,0,0,1,4.83-.57c3.44,0,5.89,1,7.29,2.88,1.27,1.74,1.55,4.16.83,7.19,1.46,1.09,4.09,4,6,11.69C59.8,47.1,61.7,51.08,64,53.07a2,2,0,0,1,.25.23,8.93,8.93,0,0,1,1,1.28c.69,1,1.64,2.32,5.07,4.93a29.18,29.18,0,0,1,4.06,4.2c3.75,4.39,8.41,9.86,18.92,10.75l.6.05.34.51s2.51,3.35,12.78,4.51l.43,0,.31.32c.12.12,2.74,2.84,1.73,5.9.37.56,1.38,1.59,3.73,1.59a10.43,10.43,0,0,0,2.12-.24l.37-.07.34.14c1.61.66,9.73,4.13,10.9,8a3.18,3.18,0,0,1-.38,2.77c-1,1.55-2.17,3.06-4.19,3.06-2.3,0-5.31-2-11.18-6.48L106.28,92l-.07,0a5.85,5.85,0,0,0-2.81-.91,2.44,2.44,0,0,0-1.84.75l-.69.71L100,92c-.22-.14-22.21-13.75-32.93-13.75A46.89,46.89,0,0,0,53,80.13a12.76,12.76,0,0,1-3.31.66c-9.29,0-11,2-11.25,2.94C37.72,85.92,31,98.6,28,100.72a21.71,21.71,0,0,0-.59,2.91C26.75,107.35,26.11,111.19,23.58,111.19Z"/><path class="cls-2" d="M39.74,21.26s14.93-3.8,11.2,8.87c0,0,3.73,1.26,6.21,11.4s5.77,12.2,6.22,12.66c1.25,1.27,1.25,2.54,6.22,6.34s8.71,13.93,23.63,15.2c0,0,2.49,3.8,13.68,5.06,0,0,2.49,2.54,1.24,5.07,0,0,1.25,3.8,7.47,2.53,0,0,12.43,5.07,10,8.87s-3.74,3.8-13.68-3.8l-5-2.53s-3.73-2.54-6.22,0c0,0-22.38-13.94-33.58-13.94s-14.92,2.54-17.41,2.54-11.19,0-12.43,3.8-8.89,16.39-10,16.43-1.16,10.17-3.64,10.17-7.47,0-7.47-2.54c0,0-11.19,0-8.7-7.6,0,0,7.36,1.69,9.9-.42S24.82,74.46,31,73.19s12.43-5.06,13.68-6.33c0,0,7.46-10.13-1.25-15.2,0,0-3.73-7.6-14.92-6.33,0,0-14.6-3.8-16.63-8.87,0,0-10-7.73-9.49-8.87.83-1.69,5.16,1.22,7.47,2.54,1.15.65.41-1.69,1.24-1.27,2.49,1.27,3.63,6,6.17,6.15s6.27,2.72,11.24,2.72,10,2.53,12.44,0-5-6.34-13.68-8.87-6.32-3.8-10-3.8-4.93-3.8-3.68-3.8c0,0-8.71-3.8-3.73-3.8s8.7,3.8,10,3.8,12.43,2.53,14.92,3.8S39.74,25.06,39.74,21.26Z"/></svg>