<svg id="Layer_1" data-name="Layer 1" xmlns="http://www.w3.org/2000/svg" viewBox="0 0 771.32 198.34"><defs><style>.cls-1{isolation:isolate;}</style></defs><g id="Tropical_Animals" data-name="Tropical Animals" class="cls-1"><g class="cls-1"><path d="M34.25,154.43a5.64,5.64,0,0,1,1,2.91c0,3.15-2.09,5.59-7.68,5.59-3.38,0-5.24-1.51-5.24-4.89a9.38,9.38,0,0,1,.69-4V100.15L9.44,102.83A7.07,7.07,0,0,1,5.82,104c-3.26,0-5.35-2-5.35-5.12,0-3.38,2.33-6,4.77-6a5.41,5.41,0,0,1,3.38.82L24.11,90.6c1.63-2,6.41-2.57,8.51-1.4l17.47-3.15a8.16,8.16,0,0,1,3.61-.81c3,0,5.13,2,5.13,5.47,0,2.91-1.87,5.48-5,5.48a7,7,0,0,1-3.5-.82L34.25,98.28Z"/><path d="M60.69,118.32l-.94-3c0-2.21,3-4.31,6.76-4.31,3.49,0,5.71,1.63,5.71,4a3.13,3.13,0,0,1-.7,2.56v4.2h.12c6.4-5.83,12.93-10.37,18.63-10.37,3.61,0,7.23,3.49,7.23,14.21,0,3.15-1.87,5.36-5.83,5.36-3.38,0-5.36-1.28-5.36-3.15a11.88,11.88,0,0,1,.47-3c0-1.4-.47-2.68-1.4-2.68-1.86,0-7.92,4-13.86,11.06v21.32a5.24,5.24,0,0,1,1.4,3.26c0,3.5-2,5.24-8.27,5.24-3.73,0-5.48-1.51-5.48-4.54a3.78,3.78,0,0,1,1.52-2.91Z"/><path d="M149.33,132.18c0,9.79-6.17,18.52-9,21.32-9.09,8.85-14.79,11.06-25,11.06-6.53,0-16.08-5.59-16.08-18.52,0-20.73,14.68-35.88,32.15-35.88C145.83,110.16,149.33,123.79,149.33,132.18Zm-39.14,12c0,6.87,3.61,11.18,7.69,11.18,5.12,0,9.2-2,13.39-5.94a23.24,23.24,0,0,0,7-16.66c0-7.57-2.33-13.51-8.85-13.51C119.86,119.25,110.19,131,110.19,144.18Z"/><path d="M171,125.07h.24c6.75-9.31,13.27-13.74,23.29-13.74,8,0,13.63,5.94,13.63,15.49,0,23.53-18.29,36.93-30.64,36.93A9.27,9.27,0,0,1,171,161.3v27.26a6.13,6.13,0,0,1,1,3.38c0,3.38-2.21,4.89-7.57,4.89-2.68,0-5.36-.7-5.36-4.19a9.55,9.55,0,0,1,1-4.43V119.83a5.86,5.86,0,0,1-1.17-3.38c0-4.07,3.15-5.47,5.83-5.47,5,0,7,1.75,7,5a14.85,14.85,0,0,1-.82,3.14Zm0,25.86a6.44,6.44,0,0,0,5.94,3.85c8.74,0,20.27-12.23,20.27-26.33,0-4.31-1.75-7.8-5.94-7.8-3.14,0-6.17,1.28-11.65,7A56,56,0,0,0,171,139.29Z"/><path d="M218.16,121.11a4.58,4.58,0,0,1-1-3c0-3.27.23-6.76,7.33-6.76,2.68,0,5.83,3,5.83,5.36a8.61,8.61,0,0,1-1.28,4V154a4.82,4.82,0,0,1,1.51,3.26c0,4-4.89,5.71-8.5,5.71-3,0-5.24-2.09-5.24-5.47a6.13,6.13,0,0,1,1.39-4ZM230.4,94.44c0,6.87-3.27,10.83-7,10.83s-5.25-2.33-5.25-5.71c0-5.82,2.57-10.48,7-10.48C228.53,89.08,230.4,91.06,230.4,94.44Z"/><path d="M285.61,119.72c0,3.37-2,5.82-6.64,5.82-2.68,0-3.26-1.63-3.85-3s-1.39-2.91-5.47-2.91-7.57,2.1-10.95,5.82c-4,4.08-8.15,10.6-8.15,18.53,0,7.22,3.72,11.41,10.71,11.41a13.73,13.73,0,0,0,7.46-2.56c2.44-1.52,5.36-4,6.75-7,.82-3.15,1.52-5.36,5.13-5.36,4.43,0,5.71,3.15,5.71,4.89,0,1.28-3.38,8.51-10,13.4a27.7,27.7,0,0,1-17.71,5.82c-11.53,0-18.75-7.92-18.75-18.75,0-13.4,5.24-19.69,12-26.91,3.38-3.61,11.3-8.27,17.59-8.27C278.5,110.63,285.61,114.71,285.61,119.72Z"/><path d="M327.31,122.86c0-3-1.05-4.54-4.08-4.54a30.13,30.13,0,0,0-16.07,4.89c.23.93-1.52,3.26-4.9,3.26-2.79,0-4.89-3.14-4.89-5.47s2.91-5.24,5.36-4.78c5.94-3.84,14-6.41,24.58-6.41,5.94,0,10.6,3.85,10.6,10.49v35.76a4.09,4.09,0,0,1,.93,2.68c0,3.49-4.19,4.31-7.69,4.31-3.84,0-5-1.75-5-3.61a5.7,5.7,0,0,1,.94-2.8V151.4H327c-8.27,9.09-16.31,13.16-26,13.16-5.94,0-10.71-3.37-10.71-9.43,0-10.25,12.69-23.42,37-26.33Zm-.23,13.28c-15.38,1.75-26.1,11.07-26.1,16.31,0,2.1,1.63,2.68,4,2.68,8.51,0,22.14-10.14,22.14-15.38Z"/><path d="M352.58,96.19a10.66,10.66,0,0,1-1.16-4c0-5,1.4-6.29,7.22-6.29,3,0,6.52,2,6.52,5.47a8.56,8.56,0,0,1-1.74,5.13v58a4.41,4.41,0,0,1,1.86,3.49c0,2-2.91,4.89-7,4.89-3.61,0-6.76-2-6.76-5.59a6.32,6.32,0,0,1,1.05-3.14Z"/><path d="M413.27,136.14c-6.29,12.46-7.57,14.91-7.81,16.77a25.62,25.62,0,0,0-.23,5.13c0,2.56-1.51,4.89-6.87,4.89-4.31,0-6.06-2.56-6.06-5.36,0-2.56,2.1-6.75,6.29-15.37l20.39-40c2.44-4.42,3.61-7.22,4.07-9.55-.23-4.19,2.45-7.92,6.76-7.92,4,0,6.06,2.45,6.06,4.43s-.82,2.68-.82,4.31c0,3.61,10.13,22.6,13.05,29,8.62,17.59,14,29.47,14,33.55,0,4.31-2.68,6.87-6.88,6.87-3.61,0-6.17-1.86-6.17-4.42,0-1.87.7-3.15.7-4.2,0-1.74-1.17-5.59-7.69-20Zm24.93-10.6L428.76,104l-10.95,23Z"/><path d="M482.81,155.94a4.24,4.24,0,0,1,.81,2.8c0,3-4.19,4.19-7.22,4.19s-5.82-1.16-5.82-4a3.73,3.73,0,0,1,1.39-3.26V137.54a4.67,4.67,0,0,1-1.74-3.85,18.56,18.56,0,0,1,1.74-6.87V117.5A6.51,6.51,0,0,1,471,114c0-2.33,3.61-4.78,7.11-4.78,4.54,0,5.82,1.63,5.82,4.08a6.63,6.63,0,0,1-1.16,3.61v4.54c11.88-9.9,17.24-12.23,21.43-12.23s8.62,4,8.62,7.69V155a5.57,5.57,0,0,1,.81,3c0,3.61-2.33,4.89-6.75,4.89-4,0-5.83-1.63-5.83-4.42a5.12,5.12,0,0,1,.94-3V122.75c0-.82-1.75-2.22-2.68-2.22-1.17,0-5.48,1.52-16.54,10.83Z"/><path d="M526.83,121.11a4.58,4.58,0,0,1-1-3c0-3.27.23-6.76,7.33-6.76,2.68,0,5.83,3,5.83,5.36a8.61,8.61,0,0,1-1.28,4V154a4.82,4.82,0,0,1,1.51,3.26c0,4-4.89,5.71-8.5,5.71-3,0-5.24-2.09-5.24-5.47a6.13,6.13,0,0,1,1.39-4Zm12.24-26.67c0,6.87-3.27,10.83-7,10.83s-5.25-2.33-5.25-5.71c0-5.82,2.57-10.48,7-10.48C537.2,89.08,539.07,91.06,539.07,94.44Z"/><path d="M562.71,154.55a5.75,5.75,0,0,1,.93,3c0,3.62-1.63,5.36-6,5.36s-6.76-1.51-6.76-5.71a8.83,8.83,0,0,1,1-3.49V118.67a7,7,0,0,1-1.17-4.08c0-3.73,2.33-5.36,7.58-5.36,3.61,0,5.24,2.33,5.24,5.13a7.07,7.07,0,0,1-.82,3.61v4.54c6.64-5.71,17-13.28,22.83-13.28,4.54,0,7,2.92,7,8.16V123c10.14-8.27,19.57-13.75,24.58-13.75,3.84,0,6.64,2.22,6.64,6.41V155c1.17.93,1.28,1.4,1.28,3,0,3.49-4.08,4.89-7.34,4.89-3.61,0-5.82-.81-5.82-4.89a3.31,3.31,0,0,1,1-2.8v-31.8c0-1.51-.7-2.68-1.87-2.68-2.79,0-8.27,3.27-18.52,11.77V154.9c0,6.87-2.1,8-7.22,8-3.38,0-5.59-1.51-5.59-4.77a6.75,6.75,0,0,1,2-3.85V123.79c0-1.86-.47-2.56-2-2.56-2.8,0-9.44,4.43-17,11.42Z"/><path d="M669.64,122.86c0-3-1-4.54-4.08-4.54a30.16,30.16,0,0,0-16.07,4.89c.23.93-1.52,3.26-4.89,3.26-2.8,0-4.9-3.14-4.9-5.47s2.92-5.24,5.36-4.78c5.94-3.84,14-6.41,24.58-6.41,5.94,0,10.6,3.85,10.6,10.49v35.76a4,4,0,0,1,.93,2.68c0,3.49-4.19,4.31-7.69,4.31-3.84,0-5-1.75-5-3.61a5.69,5.69,0,0,1,.93-2.8V151.4h-.12c-8.27,9.09-16.31,13.16-26,13.16-5.94,0-10.71-3.37-10.71-9.43,0-10.25,12.69-23.42,37-26.33Zm-.23,13.28c-15.38,1.75-26.1,11.07-26.1,16.31,0,2.1,1.64,2.68,4,2.68,8.51,0,22.14-10.14,22.14-15.38Z"/><path d="M694.91,96.19a10.66,10.66,0,0,1-1.16-4c0-5,1.4-6.29,7.22-6.29,3,0,6.53,2,6.53,5.47a8.51,8.51,0,0,1-1.75,5.13v58a4.41,4.41,0,0,1,1.86,3.49c0,2-2.91,4.89-7,4.89-3.61,0-6.75-2-6.75-5.59a6.31,6.31,0,0,1,1-3.14Z"/><path d="M762.36,116a4.22,4.22,0,0,1-4.54,4.54c-2.1,0-2.33-.58-2.8-1.16s-1.28-1.28-6.17-1.28c-11.54,0-20.39,6-20.39,11.29,0,1.87,1.17,3,3.26,3,2.8,0,6.41-1.51,10.72-2.56,4.77-1.28,8.74-2.68,13-2.68,7,0,12.69,4.19,12.69,11.88,0,18.64-24.34,24.7-33.31,24.7-8.16,0-16.19-4.31-16.19-9.79,0-3.38,1.86-6.17,5.82-6.17,3.38,0,4.31,2,4.31,3a3.3,3.3,0,0,1-.47,1.63,10.07,10.07,0,0,0,7,2.56c7.92,0,22-5,22-14.09,0-2.92-1.63-4.66-4.89-4.66s-6.18,1.4-10.72,2.56-8.39,2.56-13.86,2.56c-6.29,0-10.25-4.77-10.25-10.83,0-12.35,17.24-21.2,31.1-21.2C756.3,109.35,762.36,111.68,762.36,116Z"/></g></g><g id="Læring_med_design" data-name="Læring med design" class="cls-1"><g class="cls-1"><path d="M133.54,52.14l13.28-1.68a6.52,6.52,0,0,1,2.45-.91,3,3,0,0,1,3.14,3.08c0,2.72-1.39,4-2.86,4a7.28,7.28,0,0,1-2-.35l-14.67,1.82a12.29,12.29,0,0,1-3,.49c-2.31,0-3.91-1-3.91-3.29a2.86,2.86,0,0,1,.91-2.37V18.17a4.66,4.66,0,0,1-.49-1.88c0-2.87,2.09-3.85,4.12-3.85,1.82,0,3.77.77,3.77,3.71a5,5,0,0,1-.7,2Z"/><path d="M178.13,34.67a2.71,2.71,0,0,0-2.65-3,18.37,18.37,0,0,0-10.91,3.56c0,.56-1.11,1.75-3.14,1.75-1.75,0-2.73-2-2.73-3.07,0-1.47,1.26-3.22,2.87-3.08a26.35,26.35,0,0,1,15.23-4.47c4.2,0,7.34,2.59,7.34,5.73v1.75c3.5-4.62,8.25-7.27,12.16-7.27a10,10,0,0,1,10.49,9.15,4.9,4.9,0,0,1-4.27,4.69l-18,2.09a17.64,17.64,0,0,0-1,5.73c0,2.8,2,5,5.87,5a14.3,14.3,0,0,0,11-5.39c-.42-1.67.62-2.79,2.79-2.79,2.45,0,3.5,1.33,3.5,2.58s-5.67,11-18.1,11c-5.87,0-9.37-3.22-10.35-7.13-3.07,3.91-9.92,7.34-15.58,7.34-5.17,0-8-2.1-8-5.8,0-4.13,2.52-8.18,8.18-10.84a29.16,29.16,0,0,1,10.62-3.07l4.68-.56Zm-4,9a25.5,25.5,0,0,0-8.67,2.38c-2.86,1.6-4.19,3.77-4.19,5.66,0,1,.91,1.68,2.8,1.68,3.56,0,14-5.18,14-10.21ZM201,35.92a4.61,4.61,0,0,0-4.76-4.12c-3.14,0-6.08,2-8.94,5.8Z"/><path d="M212.73,31.1l-.56-1.82c0-1.32,1.82-2.58,4.05-2.58s3.43,1,3.43,2.37a1.88,1.88,0,0,1-.42,1.54v2.52h.07c3.84-3.5,7.75-6.22,11.18-6.22,2.16,0,4.33,2.09,4.33,8.52,0,1.89-1.12,3.22-3.49,3.22-2,0-3.22-.77-3.22-1.89a6.94,6.94,0,0,1,.28-1.81c0-.84-.28-1.61-.84-1.61-1.12,0-4.75,2.37-8.31,6.64V52.77a3.12,3.12,0,0,1,.84,1.95c0,2.1-1.19,3.15-5,3.15-2.23,0-3.28-.91-3.28-2.73a2.25,2.25,0,0,1,.91-1.74Z"/><path d="M239.22,32.78a2.74,2.74,0,0,1-.63-1.82c0-2,.14-4.05,4.4-4.05,1.61,0,3.49,1.82,3.49,3.21a5.13,5.13,0,0,1-.77,2.38v20a2.85,2.85,0,0,1,.91,1.95c0,2.38-2.93,3.43-5.1,3.43a3,3,0,0,1-3.14-3.29,3.64,3.64,0,0,1,.84-2.37Zm7.33-16c0,4.13-2,6.5-4.19,6.5s-3.14-1.39-3.14-3.42c0-3.49,1.53-6.29,4.19-6.29A2.89,2.89,0,0,1,246.55,16.77Z"/><path d="M261,53.67a2.53,2.53,0,0,1,.49,1.68c0,1.82-2.52,2.52-4.33,2.52s-3.5-.7-3.5-2.38a2.25,2.25,0,0,1,.84-2V42.63a2.79,2.79,0,0,1-1-2.3,11.13,11.13,0,0,1,1-4.13V30.61a3.89,3.89,0,0,1-.56-2.09c0-1.4,2.17-2.87,4.26-2.87,2.73,0,3.5,1,3.5,2.45a4,4,0,0,1-.7,2.16V33c7.13-5.94,10.34-7.34,12.86-7.34S279,28,279,30.26V53.12a3.27,3.27,0,0,1,.49,1.81c0,2.17-1.4,2.94-4.05,2.94-2.38,0-3.5-1-3.5-2.66a3.07,3.07,0,0,1,.56-1.81V33.76c0-.49-1.05-1.33-1.61-1.33s-3.28.91-9.92,6.5Z"/><path d="M312.74,58.71c0,9.29-8,13.76-14.47,13.76-5.73,0-10.34-2.3-10.34-5,0-2.09,1.25-3.63,3.07-3.63a2.56,2.56,0,0,1,2.59,2,9.27,9.27,0,0,0,5,1.4c3.35,0,7.62-2.16,7.62-9.08,0-3.57.07-7.06.07-10.56-2.73,6.85-8.74,11.26-14,11.26-5.45,0-7.69-3.5-7.69-7.9,0-11.18,8.95-23.9,23.83-23.9,2.73,0,4.27,1.05,4.27,3.56ZM304.35,41a28.83,28.83,0,0,0,1.89-8.6v-.07c-8.32,0-15.17,9.22-15.17,17.68,0,2,.77,3.22,2,3.22C296,53.19,301.62,49.06,304.35,41Z"/><path d="M340.41,52.84a3.43,3.43,0,0,1,.56,1.81c0,2.17-1,3.22-3.63,3.22s-4.06-.91-4.06-3.43a5.27,5.27,0,0,1,.63-2.09v-21a4.22,4.22,0,0,1-.7-2.44c0-2.24,1.4-3.22,4.55-3.22a2.88,2.88,0,0,1,3.14,3.08,4.23,4.23,0,0,1-.49,2.16v2.73c4-3.43,10.21-8,13.7-8,2.72,0,4.19,1.75,4.19,4.89V33.9c6.08-5,11.74-8.25,14.75-8.25a3.63,3.63,0,0,1,4,3.84V53.12c.7.55.77.83.77,1.81,0,2.1-2.45,2.94-4.4,2.94-2.17,0-3.5-.49-3.5-2.94a2,2,0,0,1,.63-1.68V34.18c0-.91-.42-1.61-1.12-1.61-1.67,0-5,2-11.11,7.06V53.05c0,4.12-1.26,4.82-4.33,4.82-2,0-3.35-.91-3.35-2.87a4,4,0,0,1,1.18-2.3V34.39c0-1.12-.28-1.54-1.18-1.54-1.68,0-5.67,2.65-10.21,6.85Z"/><path d="M411.77,35.08c0,3.15-2.17,6-18.38,8.88l-3.22.56a12.66,12.66,0,0,0-.49,3.77c0,3.43,1.82,4.83,4.9,4.83,4.75,0,8.8-2.8,10.06-4.62-.21-1.67,1.19-3.07,3.49-3.07,2.59,0,3.15,1.61,3.15,3,0,2-6.08,10.21-17.54,10.21-5.94,0-10.42-2.59-10.42-9.86,0-12.93,9.09-22.29,18.17-22.29C409.46,26.49,411.77,32.36,411.77,35.08ZM391.5,39.56c12.3-2.17,14.05-3.22,14.05-4.2,0-1.67-1.19-3.49-4.2-3.49C397.3,31.87,393.53,35.08,391.5,39.56Z"/><path d="M439.58,17.12a2.66,2.66,0,0,1-1-2.44c0-1.75,1.75-3,4.2-3a3.14,3.14,0,0,1,3.42,3.22L446,17.26v36a2.23,2.23,0,0,1,.91,1.75c0,2.1-1.33,2.94-4.26,2.94-2.38,0-3.43-1-3.43-2.8,0-.7,0-1.33.35-1.61V48.71c-3.49,5.24-10.9,10.07-17.05,10.07-4.12,0-7.76-2.8-7.76-8.25,0-11,11.25-21.94,20.13-21.94a8.25,8.25,0,0,1,4.68,1.18Zm-18.17,32c0,2.17.7,3.71,3.29,3.71,3.42,0,7-2.52,9.85-5.59,2.79-2.73,4.89-4.76,4.89-8.74,0-2.66-1.47-4.61-4.47-4.61C429.24,33.9,421.41,43.4,421.41,49.13Z"/><path d="M488.78,17.12a2.66,2.66,0,0,1-1-2.44c0-1.75,1.75-3,4.2-3a3.14,3.14,0,0,1,3.42,3.22l-.21,2.37v36a2.23,2.23,0,0,1,.91,1.75c0,2.1-1.33,2.94-4.26,2.94-2.38,0-3.43-1-3.43-2.8,0-.7,0-1.33.35-1.61V48.71c-3.49,5.24-10.9,10.07-17,10.07-4.12,0-7.76-2.8-7.76-8.25,0-11,11.25-21.94,20.13-21.94a8.25,8.25,0,0,1,4.68,1.18Zm-18.17,32c0,2.17.7,3.71,3.29,3.71,3.42,0,7-2.52,9.85-5.59,2.79-2.73,4.89-4.76,4.89-8.74,0-2.66-1.47-4.61-4.47-4.61C478.44,33.9,470.61,43.4,470.61,49.13Z"/><path d="M530.15,35.08c0,3.15-2.16,6-18.38,8.88l-3.21.56a12.66,12.66,0,0,0-.49,3.77c0,3.43,1.82,4.83,4.89,4.83,4.75,0,8.81-2.8,10.07-4.62-.21-1.67,1.18-3.07,3.49-3.07,2.59,0,3.15,1.61,3.15,3,0,2-6.09,10.21-17.55,10.21-5.94,0-10.41-2.59-10.41-9.86,0-12.93,9.09-22.29,18.17-22.29C527.85,26.49,530.15,32.36,530.15,35.08Zm-20.26,4.48c12.3-2.17,14-3.22,14-4.2,0-1.67-1.18-3.49-4.19-3.49C515.69,31.87,511.92,35.08,509.89,39.56Z"/><path d="M562,29.7a2.53,2.53,0,0,1-2.72,2.73c-1.26,0-1.4-.35-1.68-.7s-.77-.77-3.7-.77c-6.92,0-12.23,3.64-12.23,6.78a1.73,1.73,0,0,0,2,1.82c1.68,0,3.85-.91,6.43-1.54,2.87-.77,5.24-1.61,7.83-1.61,4.19,0,7.62,2.52,7.62,7.13,0,11.18-14.61,14.82-20,14.82-4.89,0-9.71-2.59-9.71-5.87,0-2,1.11-3.71,3.49-3.71,2,0,2.59,1.19,2.59,1.82a2,2,0,0,1-.28,1,6,6,0,0,0,4.19,1.54c4.75,0,13.21-3,13.21-8.46,0-1.75-1-2.8-2.94-2.8s-3.7.84-6.43,1.54a28.26,28.26,0,0,1-8.31,1.54c-3.78,0-6.15-2.87-6.15-6.5,0-7.41,10.34-12.72,18.66-12.72C558.32,25.72,562,27.12,562,29.7Z"/><path d="M571.6,32.78A2.74,2.74,0,0,1,571,31c0-2,.14-4.05,4.4-4.05,1.61,0,3.5,1.82,3.5,3.21a5.13,5.13,0,0,1-.77,2.38v20a2.85,2.85,0,0,1,.91,1.95c0,2.38-2.94,3.43-5.11,3.43a3,3,0,0,1-3.14-3.29,3.64,3.64,0,0,1,.84-2.37Zm7.34-16c0,4.13-2,6.5-4.2,6.5s-3.14-1.39-3.14-3.42c0-3.49,1.54-6.29,4.19-6.29A2.89,2.89,0,0,1,578.94,16.77Z"/><path d="M612,58.71c0,9.29-8,13.76-14.46,13.76-5.73,0-10.35-2.3-10.35-5,0-2.09,1.26-3.63,3.08-3.63a2.55,2.55,0,0,1,2.58,2,9.3,9.3,0,0,0,5,1.4c3.35,0,7.61-2.16,7.61-9.08,0-3.57.07-7.06.07-10.56-2.72,6.85-8.73,11.26-14,11.26-5.46,0-7.69-3.5-7.69-7.9,0-11.18,8.94-23.9,23.83-23.9,2.73,0,4.26,1.05,4.26,3.56ZM603.61,41a29.14,29.14,0,0,0,1.88-8.6v-.07c-8.31,0-15.16,9.22-15.16,17.68,0,2,.77,3.22,2,3.22C595.29,53.19,600.88,49.06,603.61,41Z"/><path d="M627.16,53.67a2.53,2.53,0,0,1,.49,1.68c0,1.82-2.52,2.52-4.34,2.52s-3.49-.7-3.49-2.38a2.25,2.25,0,0,1,.84-2V42.63a2.79,2.79,0,0,1-1-2.3,11.13,11.13,0,0,1,1-4.13V30.61a3.89,3.89,0,0,1-.56-2.09c0-1.4,2.17-2.87,4.26-2.87,2.73,0,3.5,1,3.5,2.45a4,4,0,0,1-.7,2.16V33c7.13-5.94,10.34-7.34,12.86-7.34s5.17,2.38,5.17,4.61V53.12a3.27,3.27,0,0,1,.49,1.81c0,2.17-1.4,2.94-4.06,2.94-2.37,0-3.49-1-3.49-2.66a3.07,3.07,0,0,1,.56-1.81V33.76c0-.49-1.05-1.33-1.61-1.33s-3.28.91-9.92,6.5Z"/></g></g></svg>